<svg xmlns="http://www.w3.org/2000/svg" viewBox="0 0 1400 900" role="img" aria-labelledby="t d">
<title id="t">YouTube Ads Mastery 2026</title><desc id="d">DRIGHT course cover with YouTube video advertising dashboard concept.</desc>
<defs><linearGradient id="bg" x1="0" y1="0" x2="1" y2="1"><stop stop-color="#160708"/><stop offset=".55" stop-color="#4b0b10"/><stop offset="1" stop-color="#0f172a"/></linearGradient><filter id="s"><feDropShadow dx="0" dy="14" stdDeviation="20" flood-opacity=".28"/></filter></defs>
<rect width="1400" height="900" rx="52" fill="url(#bg)"/>
<circle cx="1190" cy="120" r="230" fill="#ef4444" opacity=".12"/><circle cx="190" cy="760" r="260" fill="#fb7185" opacity=".08"/>
<g transform="translate(80 75)"><rect width="220" height="56" rx="28" fill="#fff" opacity=".1"/><text x="32" y="36" font-family="Arial,sans-serif" font-size="22" font-weight="800" fill="#fff">DRIGHT COURSE 007</text></g>
<g transform="translate(88 170)"><text font-family="Arial,sans-serif" font-size="94" font-weight="900" fill="#fff">YOUTUBE ADS</text><text y="102" font-family="Arial,sans-serif" font-size="82" font-weight="900" fill="#ff3140">MASTERY 2026</text><text y="164" font-family="Arial,sans-serif" font-size="29" font-weight="700" fill="#fecdd3">VIDEO CAMPAIGNS • DEMAND GEN • SHORTS • CONVERSIONS</text></g>
<g filter="url(#s)" transform="translate(88 420)"><rect width="780" height="360" rx="36" fill="#fff"/>
<rect x="32" y="30" width="716" height="64" rx="18" fill="#f8fafc"/><circle cx="70" cy="62" r="19" fill="#ef4444"/><path d="M64 51l18 11-18 11z" fill="#fff"/><text x="108" y="69" font-family="Arial" font-size="22" font-weight="800" fill="#111827">Campaign performance</text>
<rect x="32" y="122" width="218" height="94" rx="20" fill="#fff1f2"/><text x="55" y="153" font-family="Arial" font-size="17" fill="#9f1239">Views</text><text x="55" y="193" font-family="Arial" font-size="32" font-weight="900" fill="#111827">84.2K</text>
<rect x="268" y="122" width="218" height="94" rx="20" fill="#eff6ff"/><text x="291" y="153" font-family="Arial" font-size="17" fill="#1d4ed8">Conversions</text><text x="291" y="193" font-family="Arial" font-size="32" font-weight="900" fill="#111827">1,248</text>
<rect x="504" y="122" width="244" height="94" rx="20" fill="#ecfdf5"/><text x="527" y="153" font-family="Arial" font-size="17" fill="#047857">Target CPA</text><text x="527" y="193" font-family="Arial" font-size="32" font-weight="900" fill="#111827">₦4,600</text>
<path d="M48 314 C130 250 180 290 246 242 S360 286 430 218 S555 250 617 176 S700 190 735 158" fill="none" stroke="#ef4444" stroke-width="12" stroke-linecap="round"/><circle cx="735" cy="158" r="11" fill="#ef4444"/></g>
<g transform="translate(940 330)" filter="url(#s)"><rect width="370" height="450" rx="52" fill="#09090b" stroke="#fff" stroke-opacity=".13" stroke-width="8"/><rect x="25" y="28" width="320" height="394" rx="34" fill="#171717"/><rect x="45" y="50" width="280" height="230" rx="26" fill="#ef4444"/><path d="M145 102l102 63-102 63z" fill="#fff"/><rect x="45" y="305" width="220" height="18" rx="9" fill="#fff" opacity=".92"/><rect x="45" y="338" width="275" height="13" rx="7" fill="#fff" opacity=".35"/><rect x="45" y="365" width="180" height="13" rx="7" fill="#fff" opacity=".2"/></g>
</svg>