<svg xmlns="http://www.w3.org/2000/svg" viewBox="0 0 1400 900" role="img" aria-labelledby="t d">
<title id="t">YouTube Ads Mastery 2026</title><desc id="d">Premium DRIGHT course cover focused on YouTube video advertising.</desc>
<defs>
  <linearGradient id="bg" x1="0" y1="0" x2="1" y2="1"><stop stop-color="#09090b"/><stop offset=".55" stop-color="#171717"/><stop offset="1" stop-color="#33080c"/></linearGradient>
  <linearGradient id="red" x1="0" y1="0" x2="1" y2="1"><stop stop-color="#ff2f43"/><stop offset="1" stop-color="#d8071f"/></linearGradient>
  <filter id="shadow"><feDropShadow dx="0" dy="22" stdDeviation="28" flood-color="#000" flood-opacity=".35"/></filter>
</defs>
<rect width="1400" height="900" rx="52" fill="url(#bg)"/>
<circle cx="1260" cy="100" r="280" fill="#ff2f43" opacity=".10"/><circle cx="1120" cy="760" r="250" fill="#ff2f43" opacity=".06"/>
<g transform="translate(82 72)">
  <rect width="202" height="48" rx="24" fill="#fff" opacity=".09"/><text x="28" y="31" fill="#fff" font-family="Arial,sans-serif" font-size="19" font-weight="900" letter-spacing="2">DRIGHT • 007</text>
</g>
<g transform="translate(86 172)">
  <text fill="#fff" font-family="Arial,sans-serif" font-size="88" font-weight="900">YouTube Ads</text>
  <text y="94" fill="#ff3950" font-family="Arial,sans-serif" font-size="82" font-weight="900">Mastery 2026</text>
  <text y="156" fill="#d4d4d8" font-family="Arial,sans-serif" font-size="27" font-weight="700">VIDEO ADS • SHORTS • DEMAND GEN • CONVERSIONS</text>
</g>
<g transform="translate(90 432)">
  <g>
    <rect width="182" height="56" rx="28" fill="#fff" opacity=".08"/><text x="91" y="36" text-anchor="middle" fill="#fff" font-family="Arial" font-size="19" font-weight="800">Video campaigns</text>
  </g>
  <g transform="translate(198)"><rect width="144" height="56" rx="28" fill="#fff" opacity=".08"/><text x="72" y="36" text-anchor="middle" fill="#fff" font-family="Arial" font-size="19" font-weight="800">Shorts ads</text></g>
  <g transform="translate(358)"><rect width="154" height="56" rx="28" fill="#fff" opacity=".08"/><text x="77" y="36" text-anchor="middle" fill="#fff" font-family="Arial" font-size="19" font-weight="800">Remarketing</text></g>
</g>
<g transform="translate(90 540)" font-family="Arial,sans-serif">
  <text fill="#fafafa" font-size="25" font-weight="800">Learn the complete ad workflow</text>
  <g fill="#cbd5e1" font-size="21"><text y="48">✓ Campaign setup &amp; targeting</text><text y="88">✓ Creative &amp; YouTube Shorts</text><text y="128">✓ Tracking, optimization &amp; scaling</text></g>
  <rect y="174" width="360" height="66" rx="20" fill="#fff"/><text x="180" y="216" text-anchor="middle" fill="#18181b" font-size="22" font-weight="900">PRACTICAL • PHONE-FRIENDLY</text>
</g>
<g transform="translate(835 118)" filter="url(#shadow)">
  <rect width="470" height="666" rx="54" fill="#0a0a0a" stroke="#3f3f46" stroke-width="5"/>
  <rect x="22" y="24" width="426" height="618" rx="40" fill="#141414"/>
  <rect x="44" y="52" width="382" height="330" rx="32" fill="url(#red)"/>
  <circle cx="235" cy="217" r="78" fill="#fff" opacity=".98"/><path d="M213 172l72 45-72 45z" fill="#e50925"/>
  <rect x="44" y="410" width="218" height="24" rx="12" fill="#fff"/><rect x="44" y="452" width="330" height="15" rx="8" fill="#52525b"/>
  <rect x="44" y="485" width="285" height="15" rx="8" fill="#3f3f46"/>
  <g transform="translate(44 540)"><rect width="382" height="72" rx="20" fill="#202020"/><text x="22" y="30" fill="#a1a1aa" font-family="Arial" font-size="15">Campaign result</text><text x="22" y="56" fill="#fff" font-family="Arial" font-size="27" font-weight="900">3.8× ROAS</text><text x="247" y="56" fill="#4ade80" font-family="Arial" font-size="23" font-weight="900">+42%</text></g>
</g>
</svg>