<svg xmlns="http://www.w3.org/2000/svg" viewBox="0 0 1400 900" role="img">
<defs><linearGradient id="bg" x1="0" y1="0" x2="1" y2="1"><stop stop-color="#fff"/><stop offset="1" stop-color="#fff1f2"/></linearGradient><linearGradient id="r" x1="0" y1="0" x2="1" y2="1"><stop stop-color="#ff2f43"/><stop offset="1" stop-color="#d8071f"/></linearGradient></defs>
<rect width="1400" height="900" rx="52" fill="url(#bg)"/>
<text x="90" y="115" font-family="Arial" font-size="34" font-weight="900" fill="#111827">Build YouTube Ads People Actually Watch</text>
<text x="90" y="166" font-family="Arial" font-size="22" fill="#64748b">Hook fast • choose the right campaign • measure the business result</text>
<g transform="translate(88 235)">
  <rect width="430" height="575" rx="48" fill="#111"/>
  <rect x="22" y="22" width="386" height="531" rx="36" fill="url(#r)"/>
  <text x="48" y="78" fill="#fff" font-family="Arial" font-size="20" font-weight="900">YOUTUBE SHORTS AD</text>
  <circle cx="215" cy="260" r="86" fill="#fff"/><path d="M190 210l86 50-86 50z" fill="#e50925"/>
  <rect x="48" y="405" width="265" height="20" rx="10" fill="#fff"/><rect x="48" y="446" width="315" height="14" rx="7" fill="#fff" opacity=".5"/>
  <rect x="48" y="488" width="150" height="42" rx="21" fill="#fff"/><text x="123" y="515" text-anchor="middle" fill="#111" font-family="Arial" font-size="17" font-weight="900">LEARN MORE</text>
</g>
<g transform="translate(590 250)" font-family="Arial">
  <g><circle cx="34" cy="34" r="34" fill="#ef4444"/><text x="34" y="43" text-anchor="middle" fill="#fff" font-size="25" font-weight="900">1</text><text x="92" y="31" font-size="28" font-weight="900" fill="#111827">Hook in the first seconds</text><text x="92" y="66" font-size="18" fill="#64748b">Open with the outcome, problem or proof.</text></g>
  <g transform="translate(0 145)"><circle cx="34" cy="34" r="34" fill="#ef4444"/><text x="34" y="43" text-anchor="middle" fill="#fff" font-size="25" font-weight="900">2</text><text x="92" y="31" font-size="28" font-weight="900" fill="#111827">Match campaign to objective</text><text x="92" y="66" font-size="18" fill="#64748b">Video views, Demand Gen, reach or conversion.</text></g>
  <g transform="translate(0 290)"><circle cx="34" cy="34" r="34" fill="#ef4444"/><text x="34" y="43" text-anchor="middle" fill="#fff" font-size="25" font-weight="900">3</text><text x="92" y="31" font-size="28" font-weight="900" fill="#111827">Track what happens after the view</text><text x="92" y="66" font-size="18" fill="#64748b">Clicks, leads, sales and return on spend.</text></g>
  <rect y="455" width="680" height="122" rx="28" fill="#111827"/><text x="32" y="505" fill="#fff" font-size="23" font-weight="900">THE GOAL IS NOT “MORE VIEWS”</text><text x="32" y="548" fill="#cbd5e1" font-size="19">The goal is measurable business growth from the right viewer.</text>
</g>
</svg>