<svg xmlns="http://www.w3.org/2000/svg" width="1600" height="900" viewBox="0 0 1600 900">
<defs><linearGradient id="b" x1="0" y1="0" x2="1" y2="1"><stop stop-color="#081231"/><stop offset=".55" stop-color="#171747"/><stop offset="1" stop-color="#4d115f"/></linearGradient><linearGradient id="i" x1="0" y1="1" x2="1" y2="0"><stop stop-color="#ffd15c"/><stop offset=".3" stop-color="#ff6a3d"/><stop offset=".62" stop-color="#e1306c"/><stop offset="1" stop-color="#833ab4"/></linearGradient></defs>
<rect width="1600" height="900" rx="44" fill="url(#b)"/><circle cx="1420" cy="90" r="300" fill="#ec4899" opacity=".15"/><circle cx="1330" cy="780" r="360" fill="#7c3aed" opacity=".13"/>
<rect x="90" y="75" width="210" height="54" rx="27" fill="#fff" opacity=".08"/><text x="195" y="110" text-anchor="middle" fill="#fff" font-family="Arial" font-size="22" font-weight="800" letter-spacing="4">DRIGHT</text>
<rect x="320" y="75" width="260" height="54" rx="27" fill="#ec4899"/><text x="450" y="110" text-anchor="middle" fill="#fff" font-family="Arial" font-size="22" font-weight="800" letter-spacing="2">COURSE 002</text>
<text x="90" y="275" fill="#fff" font-family="Arial" font-size="92" font-weight="900">Instagram Ads</text><text x="90" y="380" fill="#fff" font-family="Arial" font-size="92" font-weight="900">Mastery <tspan fill="#ff63ad">2026</tspan></text>
<text x="96" y="445" fill="#cbd5e1" font-family="Arial" font-size="31" font-weight="600">Strategy • Creative • Targeting • Reels • Stories • Scaling</text>
<g transform="translate(105 510)"><rect width="130" height="130" rx="34" fill="url(#i)"/><rect x="28" y="28" width="74" height="74" rx="23" fill="none" stroke="#fff" stroke-width="9"/><circle cx="65" cy="65" r="19" fill="none" stroke="#fff" stroke-width="9"/><circle cx="91" cy="39" r="6" fill="#fff"/></g>
<rect x="270" y="525" width="510" height="100" rx="28" fill="#fff" opacity=".07"/><text x="305" y="566" fill="#fff" font-family="Arial" font-size="26" font-weight="800">PRACTICAL • PHONE-FRIENDLY</text><text x="305" y="602" fill="#aab6d9" font-family="Arial" font-size="21">15 modules • Guided exercises • Video tutorials</text>
<g fill="#dbeafe" font-family="Arial" font-size="22" font-weight="700"><text x="110" y="715">✓ Campaign setup</text><text x="430" y="715">✓ Audience research</text><text x="110" y="775">✓ Creative testing</text><text x="430" y="775">✓ Optimization &amp; scaling</text></g>
<g transform="translate(1050 145) rotate(4 230 300)"><rect width="390" height="610" rx="56" fill="#050914" stroke="#64748b" stroke-width="5"/><rect x="22" y="28" width="346" height="554" rx="38" fill="#10204a"/><text x="54" y="95" fill="#fff" font-family="Arial" font-size="28" font-weight="800">Ad performance</text><rect x="50" y="140" width="290" height="155" rx="24" fill="#fff" opacity=".07"/><polyline points="72,260 120,240 160,250 205,205 245,220 290,170 325,182" fill="none" stroke="#ff4f9f" stroke-width="10" stroke-linecap="round"/><rect x="50" y="330" width="135" height="100" rx="20" fill="#833ab4"/><rect x="205" y="330" width="135" height="100" rx="20" fill="#e1306c"/><text x="70" y="370" fill="#fff" font-family="Arial" font-size="15">CTR</text><text x="70" y="407" fill="#fff" font-family="Arial" font-size="29" font-weight="900">3.8%</text><text x="225" y="370" fill="#fff" font-family="Arial" font-size="15">Results</text><text x="225" y="407" fill="#fff" font-family="Arial" font-size="29" font-weight="900">248</text><rect x="50" y="470" width="290" height="70" rx="20" fill="#fff" opacity=".07"/><text x="72" y="514" fill="#fff" font-family="Arial" font-size="22" font-weight="800">Reels • Stories • Feed</text></g>
</svg>